<?xml version="1.0" encoding="utf-8"?>
<!-- Generator: Adobe Illustrator 25.0.0, SVG Export Plug-In . SVG Version: 6.00 Build 0)  -->
<svg version="1.1" id="Layer_1" xmlns="http://www.w3.org/2000/svg" xmlns:xlink="http://www.w3.org/1999/xlink" x="0px" y="0px"
	 viewBox="0 0 3072.3 2389.5" style="enable-background:new 0 0 3072.3 2389.5;" xml:space="preserve">
<style type="text/css">
	.st0{fill:#8AB4F8;}
	.st1{fill:#4285F4;}
	.st2{fill:#246FDB;}
</style>
<g>
	<path class="st0" d="M1725.6,2200.4l-377.9-378.3l811.8-820.1l384.9,384.8L1725.6,2200.4z"/>
	<path class="st1" d="M1728.3,571l-384.8-384.9L527.6,1002c-106.3,106.2-106.4,278.3-0.2,384.6c0.1,0.1,0.2,0.2,0.2,0.2l815.9,815.9
		l377.5-379.2l-616.6-628.6L1728.3,571z"/>
	<path class="st0" d="M2544.2,1002l-815.9-815.9c-106.3-106.3-278.6-106.3-384.9,0c-106.3,106.3-106.3,278.6,0,384.8l816.4,815.9
		c106.3,106.3,278.6,106.3,384.8,0c106.3-106.3,106.3-278.6,0-384.8L2544.2,1002z"/>
	<circle class="st2" cx="1532.9" cy="2013.5" r="269.7"/>
</g>
</svg>
